<svg width="228.6mm" height="38.1mm" viewBox="0 0 228.6 38.1" xmlns="http://www.w3.org/2000/svg"><g id="svgGroup" stroke-linecap="round" fill-rule="evenodd" font-size="9pt" stroke="#000" stroke-width="0.25mm" fill="none" style="stroke:#000;stroke-width:0.25mm;fill:none"><path d="M 0 38.1 L 228.6 38.1 L 228.6 0 L 0 0 L 0 38.1 Z M 7.288 2.525 L 21.288 2.525 L 21.288 16.525 L 7.288 16.525 L 7.288 2.525 Z M 31.1 2.525 L 45.1 2.525 L 45.1 16.525 L 31.1 16.525 L 31.1 2.525 Z M 88.25 2.525 L 102.25 2.525 L 102.25 16.525 L 88.25 16.525 L 88.25 2.525 Z M 126.35 2.525 L 140.35 2.525 L 140.35 16.525 L 126.35 16.525 L 126.35 2.525 Z M 159.688 2.525 L 173.688 2.525 L 173.688 16.525 L 159.688 16.525 L 159.688 2.525 Z M 183.5 2.525 L 197.5 2.525 L 197.5 16.525 L 183.5 16.525 L 183.5 2.525 Z M 207.313 2.525 L 221.313 2.525 L 221.313 16.525 L 207.313 16.525 L 207.313 2.525 Z M 4.906 21.575 L 18.906 21.575 L 18.906 35.575 L 4.906 35.575 L 4.906 21.575 Z M 28.719 21.575 L 42.719 21.575 L 42.719 35.575 L 28.719 35.575 L 28.719 21.575 Z M 52.531 21.575 L 66.531 21.575 L 66.531 35.575 L 52.531 35.575 L 52.531 21.575 Z M 85.869 21.575 L 99.869 21.575 L 99.869 35.575 L 85.869 35.575 L 85.869 21.575 Z M 128.731 21.575 L 142.731 21.575 L 142.731 35.575 L 128.731 35.575 L 128.731 21.575 Z M 162.069 21.575 L 176.069 21.575 L 176.069 35.575 L 162.069 35.575 L 162.069 21.575 Z M 185.881 21.575 L 199.881 21.575 L 199.881 35.575 L 185.881 35.575 L 185.881 21.575 Z M 209.694 21.575 L 223.694 21.575 L 223.694 35.575 L 209.694 35.575 L 209.694 21.575 Z M 54.913 2.525 L 68.913 2.525 L 68.913 16.525 L 54.913 16.525 L 54.913 2.525 Z M 77.431 22.575 L 84.431 22.575 L 84.431 37.575 L 77.431 37.575 L 77.431 22.575 Z M 101.307 22.575 L 108.307 22.575 L 108.307 37.575 L 101.307 37.575 L 101.307 22.575 Z M 120.293 22.575 L 127.293 22.575 L 127.293 37.575 L 120.293 37.575 L 120.293 22.575 Z M 144.169 22.575 L 151.169 22.575 L 151.169 37.575 L 144.169 37.575 L 144.169 22.575 Z M 79.812 3.525 L 86.812 3.525 L 86.812 18.525 L 79.812 18.525 L 79.812 3.525 Z M 103.688 3.525 L 110.688 3.525 L 110.688 18.525 L 103.688 18.525 L 103.688 3.525 Z M 117.912 3.525 L 124.912 3.525 L 124.912 18.525 L 117.912 18.525 L 117.912 3.525 Z M 141.788 3.525 L 148.788 3.525 L 148.788 18.525 L 141.788 18.525 L 141.788 3.525 Z" vector-effect="non-scaling-stroke"/></g></svg>