<?xml version="1.0"?>
<!-- Generated by SVGo -->
<svg width="238.602mm" height="124.302mm"
     viewBox="0.000 0.000 238.602 124.302"
     xmlns="http://www.w3.org/2000/svg" 
     xmlns:xlink="http://www.w3.org/1999/xlink">
<polygon points="233.602,119.301 5.001,119.301 5.001,5.001 233.602,5.001" style="fill:none;stroke-width:0.050000mm;stroke:black"/>
<polygon points="86.107,102.775 86.107,107.476 84.582,107.476 84.582,104.245 82.857,104.245 82.857,103.325 79.557,103.325 79.557,104.245 77.832,104.245 77.832,107.476 77.007,107.476 77.007,110.275 77.832,110.275 77.832,116.545 79.557,116.545 79.557,117.525 82.857,117.525 82.857,116.545 84.582,116.545 84.582,112.075 86.107,112.075 86.107,116.775 100.107,116.775 100.107,112.075 101.632,112.075 101.632,116.545 103.357,116.545 103.357,117.525 106.657,117.525 106.657,116.545 108.382,116.545 108.382,110.275 109.207,110.275 109.207,107.476 108.382,107.476 108.382,104.245 106.657,104.245 106.657,103.325 103.357,103.325 103.357,104.245 101.632,104.245 101.632,107.476 100.107,107.476 100.107,102.775" style="fill:none;stroke-width:0.050000mm;stroke:black"/>
<polygon points="138.494,102.775 138.494,107.476 136.969,107.476 136.969,104.245 135.244,104.245 135.244,103.325 131.944,103.325 131.944,104.245 130.218,104.245 130.218,107.476 129.394,107.476 129.394,110.275 130.218,110.275 130.218,116.545 131.944,116.545 131.944,117.525 135.244,117.525 135.244,116.545 136.969,116.545 136.969,112.075 138.494,112.075 138.494,116.775 152.494,116.775 152.494,112.075 154.019,112.075 154.019,116.545 155.744,116.545 155.744,117.525 159.044,117.525 159.044,116.545 160.769,116.545 160.769,110.275 161.594,110.275 161.594,107.476 160.769,107.476 160.769,104.245 159.044,104.245 159.044,103.325 155.744,103.325 155.744,104.245 154.019,104.245 154.019,107.476 152.494,107.476 152.494,102.775" style="fill:none;stroke-width:0.050000mm;stroke:black"/>
<polygon points="9.907,102.775 9.907,116.775 23.907,116.775 23.907,102.775" style="fill:none;stroke-width:0.050000mm;stroke:black"/>
<polygon points="31.338,102.775 31.338,116.775 45.338,116.775 45.338,102.775" style="fill:none;stroke-width:0.050000mm;stroke:black"/>
<polygon points="50.388,102.775 50.388,116.775 64.388,116.775 64.388,102.775" style="fill:none;stroke-width:0.050000mm;stroke:black"/>
<polygon points="174.213,102.775 174.213,116.775 188.213,116.775 188.213,102.775" style="fill:none;stroke-width:0.050000mm;stroke:black"/>
<polygon points="193.263,102.775 193.263,116.775 207.263,116.775 207.263,102.775" style="fill:none;stroke-width:0.050000mm;stroke:black"/>
<polygon points="214.694,102.775 214.694,116.775 228.694,116.775 228.694,102.775" style="fill:none;stroke-width:0.050000mm;stroke:black"/>
<polygon points="90.869,83.726 90.869,88.426 89.344,88.426 89.344,85.196 87.619,85.196 87.619,84.275 84.319,84.275 84.319,85.196 82.594,85.196 82.594,88.426 81.769,88.426 81.769,91.226 82.594,91.226 82.594,97.495 84.319,97.495 84.319,98.476 87.619,98.476 87.619,97.495 89.344,97.495 89.344,93.025 90.869,93.025 90.869,97.726 104.869,97.726 104.869,93.025 106.394,93.025 106.394,97.495 108.119,97.495 108.119,98.476 111.419,98.476 111.419,97.495 113.144,97.495 113.144,91.226 113.969,91.226 113.969,88.426 113.144,88.426 113.144,85.196 111.419,85.196 111.419,84.275 108.119,84.275 108.119,85.196 106.394,85.196 106.394,88.426 104.869,88.426 104.869,83.726" style="fill:none;stroke-width:0.050000mm;stroke:black"/>
<polygon points="133.732,83.726 133.732,88.426 132.207,88.426 132.207,85.196 130.482,85.196 130.482,84.275 127.182,84.275 127.182,85.196 125.457,85.196 125.457,88.426 124.632,88.426 124.632,91.226 125.457,91.226 125.457,97.495 127.182,97.495 127.182,98.476 130.482,98.476 130.482,97.495 132.207,97.495 132.207,93.025 133.732,93.025 133.732,97.726 147.732,97.726 147.732,93.025 149.257,93.025 149.257,97.495 150.982,97.495 150.982,98.476 154.282,98.476 154.282,97.495 156.007,97.495 156.007,91.226 156.832,91.226 156.832,88.426 156.007,88.426 156.007,85.196 154.282,85.196 154.282,84.275 150.982,84.275 150.982,85.196 149.257,85.196 149.257,88.426 147.732,88.426 147.732,83.726" style="fill:none;stroke-width:0.050000mm;stroke:black"/>
<polygon points="9.907,83.726 9.907,97.726 23.907,97.726 23.907,83.726" style="fill:none;stroke-width:0.050000mm;stroke:black"/>
<polygon points="33.719,83.726 33.719,97.726 47.719,97.726 47.719,83.726" style="fill:none;stroke-width:0.050000mm;stroke:black"/>
<polygon points="57.532,83.726 57.532,97.726 71.532,97.726 71.532,83.726" style="fill:none;stroke-width:0.050000mm;stroke:black"/>
<polygon points="167.069,83.726 167.069,97.726 181.069,97.726 181.069,83.726" style="fill:none;stroke-width:0.050000mm;stroke:black"/>
<polygon points="190.882,83.726 190.882,97.726 204.882,97.726 204.882,83.726" style="fill:none;stroke-width:0.050000mm;stroke:black"/>
<polygon points="214.694,83.726 214.694,97.726 228.694,97.726 228.694,83.726" style="fill:none;stroke-width:0.050000mm;stroke:black"/>
<polygon points="86.107,64.676 86.107,69.376 84.582,69.376 84.582,66.146 82.857,66.146 82.857,65.225 79.557,65.225 79.557,66.146 77.832,66.146 77.832,69.376 77.007,69.376 77.007,72.176 77.832,72.176 77.832,78.446 79.557,78.446 79.557,79.426 82.857,79.426 82.857,78.446 84.582,78.446 84.582,73.976 86.107,73.976 86.107,78.676 100.107,78.676 100.107,73.976 101.632,73.976 101.632,78.446 103.357,78.446 103.357,79.426 106.657,79.426 106.657,78.446 108.382,78.446 108.382,72.176 109.207,72.176 109.207,69.376 108.382,69.376 108.382,66.146 106.657,66.146 106.657,65.225 103.357,65.225 103.357,66.146 101.632,66.146 101.632,69.376 100.107,69.376 100.107,64.676" style="fill:none;stroke-width:0.050000mm;stroke:black"/>
<polygon points="133.732,64.676 133.732,69.376 132.207,69.376 132.207,66.146 130.482,66.146 130.482,65.225 127.182,65.225 127.182,66.146 125.457,66.146 125.457,69.376 124.632,69.376 124.632,72.176 125.457,72.176 125.457,78.446 127.182,78.446 127.182,79.426 130.482,79.426 130.482,78.446 132.207,78.446 132.207,73.976 133.732,73.976 133.732,78.676 147.732,78.676 147.732,73.976 149.257,73.976 149.257,78.446 150.982,78.446 150.982,79.426 154.282,79.426 154.282,78.446 156.007,78.446 156.007,72.176 156.832,72.176 156.832,69.376 156.007,69.376 156.007,66.146 154.282,66.146 154.282,65.225 150.982,65.225 150.982,66.146 149.257,66.146 149.257,69.376 147.732,69.376 147.732,64.676" style="fill:none;stroke-width:0.050000mm;stroke:black"/>
<polygon points="9.907,64.676 9.907,78.676 23.907,78.676 23.907,64.676" style="fill:none;stroke-width:0.050000mm;stroke:black"/>
<polygon points="31.338,64.676 31.338,78.676 45.338,78.676 45.338,64.676" style="fill:none;stroke-width:0.050000mm;stroke:black"/>
<polygon points="52.769,64.676 52.769,78.676 66.769,78.676 66.769,64.676" style="fill:none;stroke-width:0.050000mm;stroke:black"/>
<polygon points="171.832,64.676 171.832,78.676 185.832,78.676 185.832,64.676" style="fill:none;stroke-width:0.050000mm;stroke:black"/>
<polygon points="193.263,64.676 193.263,78.676 207.263,78.676 207.263,64.676" style="fill:none;stroke-width:0.050000mm;stroke:black"/>
<polygon points="214.694,64.676 214.694,78.676 228.694,78.676 228.694,64.676" style="fill:none;stroke-width:0.050000mm;stroke:black"/>
<polygon points="14.669,45.626 14.669,59.626 28.669,59.626 28.669,45.626" style="fill:none;stroke-width:0.050000mm;stroke:black"/>
<polygon points="40.863,45.626 40.863,59.626 54.863,59.626 54.863,45.626" style="fill:none;stroke-width:0.050000mm;stroke:black"/>
<polygon points="59.913,45.626 59.913,59.626 73.913,59.626 73.913,45.626" style="fill:none;stroke-width:0.050000mm;stroke:black"/>
<polygon points="78.963,45.626 78.963,59.626 92.963,59.626 92.963,45.626" style="fill:none;stroke-width:0.050000mm;stroke:black"/>
<polygon points="98.013,45.626 98.013,59.626 112.013,59.626 112.013,45.626" style="fill:none;stroke-width:0.050000mm;stroke:black"/>
<polygon points="117.063,45.626 117.063,59.626 131.063,59.626 131.063,45.626" style="fill:none;stroke-width:0.050000mm;stroke:black"/>
<polygon points="136.113,45.626 136.113,59.626 150.113,59.626 150.113,45.626" style="fill:none;stroke-width:0.050000mm;stroke:black"/>
<polygon points="155.163,45.626 155.163,59.626 169.163,59.626 169.163,45.626" style="fill:none;stroke-width:0.050000mm;stroke:black"/>
<polygon points="174.213,45.626 174.213,59.626 188.213,59.626 188.213,45.626" style="fill:none;stroke-width:0.050000mm;stroke:black"/>
<polygon points="193.263,45.626 193.263,59.626 207.263,59.626 207.263,45.626" style="fill:none;stroke-width:0.050000mm;stroke:black"/>
<polygon points="214.694,45.626 214.694,59.626 228.694,59.626 228.694,45.626" style="fill:none;stroke-width:0.050000mm;stroke:black"/>
<polygon points="9.907,26.576 9.907,40.576 23.907,40.576 23.907,26.576" style="fill:none;stroke-width:0.050000mm;stroke:black"/>
<polygon points="31.338,26.576 31.338,40.576 45.338,40.576 45.338,26.576" style="fill:none;stroke-width:0.050000mm;stroke:black"/>
<polygon points="50.388,26.576 50.388,40.576 64.388,40.576 64.388,26.576" style="fill:none;stroke-width:0.050000mm;stroke:black"/>
<polygon points="69.438,26.576 69.438,40.576 83.438,40.576 83.438,26.576" style="fill:none;stroke-width:0.050000mm;stroke:black"/>
<polygon points="88.488,26.576 88.488,40.576 102.488,40.576 102.488,26.576" style="fill:none;stroke-width:0.050000mm;stroke:black"/>
<polygon points="107.538,26.576 107.538,40.576 121.538,40.576 121.538,26.576" style="fill:none;stroke-width:0.050000mm;stroke:black"/>
<polygon points="126.588,26.576 126.588,40.576 140.588,40.576 140.588,26.576" style="fill:none;stroke-width:0.050000mm;stroke:black"/>
<polygon points="145.638,26.576 145.638,40.576 159.638,40.576 159.638,26.576" style="fill:none;stroke-width:0.050000mm;stroke:black"/>
<polygon points="164.688,26.576 164.688,40.576 178.688,40.576 178.688,26.576" style="fill:none;stroke-width:0.050000mm;stroke:black"/>
<polygon points="183.738,26.576 183.738,40.576 197.738,40.576 197.738,26.576" style="fill:none;stroke-width:0.050000mm;stroke:black"/>
<polygon points="209.932,26.576 209.932,40.576 223.932,40.576 223.932,26.576" style="fill:none;stroke-width:0.050000mm;stroke:black"/>
<polygon points="7.526,7.526 7.526,21.526 21.526,21.526 21.526,7.526" style="fill:none;stroke-width:0.050000mm;stroke:black"/>
<polygon points="26.576,7.526 26.576,21.526 40.576,21.526 40.576,7.526" style="fill:none;stroke-width:0.050000mm;stroke:black"/>
<polygon points="45.626,7.526 45.626,21.526 59.626,21.526 59.626,7.526" style="fill:none;stroke-width:0.050000mm;stroke:black"/>
<polygon points="64.676,7.526 64.676,21.526 78.676,21.526 78.676,7.526" style="fill:none;stroke-width:0.050000mm;stroke:black"/>
<polygon points="83.726,7.526 83.726,21.526 97.726,21.526 97.726,7.526" style="fill:none;stroke-width:0.050000mm;stroke:black"/>
<polygon points="102.775,7.526 102.775,21.526 116.775,21.526 116.775,7.526" style="fill:none;stroke-width:0.050000mm;stroke:black"/>
<polygon points="121.825,7.526 121.825,21.526 135.826,21.526 135.826,7.526" style="fill:none;stroke-width:0.050000mm;stroke:black"/>
<polygon points="140.876,7.526 140.876,21.526 154.876,21.526 154.876,7.526" style="fill:none;stroke-width:0.050000mm;stroke:black"/>
<polygon points="159.926,7.526 159.926,21.526 173.926,21.526 173.926,7.526" style="fill:none;stroke-width:0.050000mm;stroke:black"/>
<polygon points="178.976,7.526 178.976,21.526 192.976,21.526 192.976,7.526" style="fill:none;stroke-width:0.050000mm;stroke:black"/>
<polygon points="198.026,7.526 198.026,21.526 212.026,21.526 212.026,7.526" style="fill:none;stroke-width:0.050000mm;stroke:black"/>
<polygon points="217.076,7.526 217.076,21.526 231.076,21.526 231.076,7.526" style="fill:none;stroke-width:0.050000mm;stroke:black"/>
</svg>
