0
SECTION
2
HEADER
9
$INSUNITS
70
4
0
ENDSEC
0
SECTION
2
TABLES
0
TABLE
2
LTYPE
0
LTYPE
72
65
70
64
2
CONTINUOUS
3
______
73
0
40
0
0
ENDTAB
0
TABLE
2
LAYER
0
ENDTAB
0
ENDSEC
0
SECTION
2
ENTITIES
0
LINE
8
0
10
7.2875
20
-2.525
11
21.2875
21
-2.525
0
LINE
8
0
10
7.2875
20
-16.525
11
21.2875
21
-16.525
0
LINE
8
0
10
7.2875
20
-2.525
11
7.2875
21
-16.525
0
LINE
8
0
10
21.2875
20
-2.525
11
21.2875
21
-16.525
0
LINE
8
0
10
31.1
20
-2.525
11
45.1
21
-2.525
0
LINE
8
0
10
31.1
20
-16.525
11
45.1
21
-16.525
0
LINE
8
0
10
31.1
20
-2.525
11
31.1
21
-16.525
0
LINE
8
0
10
45.1
20
-2.525
11
45.1
21
-16.525
0
LINE
8
0
10
54.9125
20
-2.525
11
68.9125
21
-2.525
0
LINE
8
0
10
54.9125
20
-16.525
11
68.9125
21
-16.525
0
LINE
8
0
10
54.9125
20
-2.525
11
54.9125
21
-16.525
0
LINE
8
0
10
68.9125
20
-2.525
11
68.9125
21
-16.525
0
LINE
8
0
10
88.25
20
-2.525
11
102.25
21
-2.525
0
LINE
8
0
10
88.25
20
-16.525
11
102.25
21
-16.525
0
LINE
8
0
10
88.25
20
-2.525
11
88.25
21
-16.525
0
LINE
8
0
10
102.25
20
-2.525
11
102.25
21
-16.525
0
LINE
8
0
10
79.812
20
-3.525
11
86.812
21
-3.525
0
LINE
8
0
10
79.812
20
-18.525
11
86.812
21
-18.525
0
LINE
8
0
10
79.812
20
-3.525
11
79.812
21
-18.525
0
LINE
8
0
10
86.812
20
-3.525
11
86.812
21
-18.525
0
LINE
8
0
10
103.688
20
-3.525
11
110.688
21
-3.525
0
LINE
8
0
10
103.688
20
-18.525
11
110.688
21
-18.525
0
LINE
8
0
10
103.688
20
-3.525
11
103.688
21
-18.525
0
LINE
8
0
10
110.688
20
-3.525
11
110.688
21
-18.525
0
LINE
8
0
10
126.35
20
-2.525
11
140.35
21
-2.525
0
LINE
8
0
10
126.35
20
-16.525
11
140.35
21
-16.525
0
LINE
8
0
10
126.35
20
-2.525
11
126.35
21
-16.525
0
LINE
8
0
10
140.35
20
-2.525
11
140.35
21
-16.525
0
LINE
8
0
10
117.912
20
-3.525
11
124.912
21
-3.525
0
LINE
8
0
10
117.912
20
-18.525
11
124.912
21
-18.525
0
LINE
8
0
10
117.912
20
-3.525
11
117.912
21
-18.525
0
LINE
8
0
10
124.912
20
-3.525
11
124.912
21
-18.525
0
LINE
8
0
10
141.788
20
-3.525
11
148.788
21
-3.525
0
LINE
8
0
10
141.788
20
-18.525
11
148.788
21
-18.525
0
LINE
8
0
10
141.788
20
-3.525
11
141.788
21
-18.525
0
LINE
8
0
10
148.788
20
-3.525
11
148.788
21
-18.525
0
LINE
8
0
10
159.6875
20
-2.525
11
173.6875
21
-2.525
0
LINE
8
0
10
159.6875
20
-16.525
11
173.6875
21
-16.525
0
LINE
8
0
10
159.6875
20
-2.525
11
159.6875
21
-16.525
0
LINE
8
0
10
173.6875
20
-2.525
11
173.6875
21
-16.525
0
LINE
8
0
10
183.5
20
-2.525
11
197.5
21
-2.525
0
LINE
8
0
10
183.5
20
-16.525
11
197.5
21
-16.525
0
LINE
8
0
10
183.5
20
-2.525
11
183.5
21
-16.525
0
LINE
8
0
10
197.5
20
-2.525
11
197.5
21
-16.525
0
LINE
8
0
10
207.3125
20
-2.525
11
221.3125
21
-2.525
0
LINE
8
0
10
207.3125
20
-16.525
11
221.3125
21
-16.525
0
LINE
8
0
10
207.3125
20
-2.525
11
207.3125
21
-16.525
0
LINE
8
0
10
221.3125
20
-2.525
11
221.3125
21
-16.525
0
LINE
8
0
10
4.90625
20
-21.575
11
18.90625
21
-21.575
0
LINE
8
0
10
4.90625
20
-35.575
11
18.90625
21
-35.575
0
LINE
8
0
10
4.90625
20
-21.575
11
4.90625
21
-35.575
0
LINE
8
0
10
18.90625
20
-21.575
11
18.90625
21
-35.575
0
LINE
8
0
10
28.71875
20
-21.575
11
42.71875
21
-21.575
0
LINE
8
0
10
28.71875
20
-35.575
11
42.71875
21
-35.575
0
LINE
8
0
10
28.71875
20
-21.575
11
28.71875
21
-35.575
0
LINE
8
0
10
42.71875
20
-21.575
11
42.71875
21
-35.575
0
LINE
8
0
10
52.53125
20
-21.575
11
66.53125
21
-21.575
0
LINE
8
0
10
52.53125
20
-35.575
11
66.53125
21
-35.575
0
LINE
8
0
10
52.53125
20
-21.575
11
52.53125
21
-35.575
0
LINE
8
0
10
66.53125
20
-21.575
11
66.53125
21
-35.575
0
LINE
8
0
10
85.86875
20
-21.575
11
99.86875
21
-21.575
0
LINE
8
0
10
85.86875
20
-35.575
11
99.86875
21
-35.575
0
LINE
8
0
10
85.86875
20
-21.575
11
85.86875
21
-35.575
0
LINE
8
0
10
99.86875
20
-21.575
11
99.86875
21
-35.575
0
LINE
8
0
10
77.43075
20
-22.575
11
84.43075
21
-22.575
0
LINE
8
0
10
77.43075
20
-37.575
11
84.43075
21
-37.575
0
LINE
8
0
10
77.43075
20
-22.575
11
77.43075
21
-37.575
0
LINE
8
0
10
84.43075
20
-22.575
11
84.43075
21
-37.575
0
LINE
8
0
10
101.30675
20
-22.575
11
108.30675
21
-22.575
0
LINE
8
0
10
101.30675
20
-37.575
11
108.30675
21
-37.575
0
LINE
8
0
10
101.30675
20
-22.575
11
101.30675
21
-37.575
0
LINE
8
0
10
108.30675
20
-22.575
11
108.30675
21
-37.575
0
LINE
8
0
10
128.73125
20
-21.575
11
142.73125
21
-21.575
0
LINE
8
0
10
128.73125
20
-35.575
11
142.73125
21
-35.575
0
LINE
8
0
10
128.73125
20
-21.575
11
128.73125
21
-35.575
0
LINE
8
0
10
142.73125
20
-21.575
11
142.73125
21
-35.575
0
LINE
8
0
10
120.29325
20
-22.575
11
127.29325
21
-22.575
0
LINE
8
0
10
120.29325
20
-37.575
11
127.29325
21
-37.575
0
LINE
8
0
10
120.29325
20
-22.575
11
120.29325
21
-37.575
0
LINE
8
0
10
127.29325
20
-22.575
11
127.29325
21
-37.575
0
LINE
8
0
10
144.16925
20
-22.575
11
151.16925
21
-22.575
0
LINE
8
0
10
144.16925
20
-37.575
11
151.16925
21
-37.575
0
LINE
8
0
10
144.16925
20
-22.575
11
144.16925
21
-37.575
0
LINE
8
0
10
151.16925
20
-22.575
11
151.16925
21
-37.575
0
LINE
8
0
10
162.06875
20
-21.575
11
176.06875
21
-21.575
0
LINE
8
0
10
162.06875
20
-35.575
11
176.06875
21
-35.575
0
LINE
8
0
10
162.06875
20
-21.575
11
162.06875
21
-35.575
0
LINE
8
0
10
176.06875
20
-21.575
11
176.06875
21
-35.575
0
LINE
8
0
10
185.88125
20
-21.575
11
199.88125
21
-21.575
0
LINE
8
0
10
185.88125
20
-35.575
11
199.88125
21
-35.575
0
LINE
8
0
10
185.88125
20
-21.575
11
185.88125
21
-35.575
0
LINE
8
0
10
199.88125
20
-21.575
11
199.88125
21
-35.575
0
LINE
8
0
10
209.69375
20
-21.575
11
223.69375
21
-21.575
0
LINE
8
0
10
209.69375
20
-35.575
11
223.69375
21
-35.575
0
LINE
8
0
10
209.69375
20
-21.575
11
209.69375
21
-35.575
0
LINE
8
0
10
223.69375
20
-21.575
11
223.69375
21
-35.575
0
LINE
8
0
10
0
20
-38.1
11
228.6
21
-38.1
0
LINE
8
0
10
0
20
0
11
228.6
21
0
0
LINE
8
0
10
0
20
-38.1
11
0
21
0
0
LINE
8
0
10
228.6
20
-38.1
11
228.6
21
0
0
ENDSEC
0
EOF